<svg width="403" height="83" viewBox="0 0 403 83" fill="none" xmlns="http://www.w3.org/2000/svg">
<path d="M64.2128 36.2977C64.1277 44.2977 61.7447 50.6807 56.9788 56.1275C56.1277 57.1488 55.1064 58.0849 54.0852 58.936C53.149 59.7871 51.7873 59.7871 51.0213 58.936C50.2554 57.9998 50.4256 56.7232 51.4469 55.8722C53.5745 54.0849 55.2766 52.0424 56.6384 49.6594C58.6809 46.1701 59.8724 42.4254 60.0426 38.3403C60.383 31.2764 58.1703 25.2339 53.4894 20.0424C52.8086 19.3615 52.0426 18.6807 51.3618 17.9998C50.4256 17.1488 50.2554 15.7871 51.0213 14.936C51.7873 13.9998 53.0639 13.9998 54.0852 14.936C59.532 19.6169 62.766 25.5743 63.9575 32.6381C64.1277 34.0849 64.1277 35.5318 64.2128 36.2977Z" fill="#3B43FF"/>
<path d="M6.25537 36.9786C6.42558 28.1275 9.74473 20.7232 16.4681 14.8509C17.4043 13.9998 18.766 14.085 19.4469 14.936C20.2128 15.7871 20.0426 17.1488 19.1064 17.9147C14.5107 21.9147 11.6171 26.8509 10.6809 32.8935C9.40431 40.8084 11.532 47.7871 16.8937 53.7445C17.5745 54.5105 18.4256 55.2764 19.1915 55.9573C20.1277 56.8084 20.2128 58.0849 19.4469 58.936C18.6809 59.7871 17.4043 59.7871 16.4681 59.0211C10.5107 53.9147 7.10643 47.3615 6.42558 39.5318C6.42558 39.1062 6.34048 38.6807 6.34048 38.2552C6.25537 37.8296 6.25537 37.4041 6.25537 36.9786Z" fill="#3B43FF"/>
<path d="M14.5107 36.8935C14.6809 30.5956 16.9788 25.319 21.8298 21.1488C22.8511 20.2977 23.9575 20.3828 24.8086 21.319C25.5745 22.1701 25.4894 23.2764 24.4681 24.2126C22.1703 26.3403 20.2979 28.8084 19.3618 31.8722C17.5745 38.0849 18.8511 43.6169 23.2766 48.3828C23.7022 48.8935 24.2128 49.319 24.6384 49.8296C25.4043 50.5956 25.4894 51.7871 24.8086 52.553C24.1277 53.4041 22.766 53.5743 22.0001 52.8084C20.7235 51.6169 19.532 50.4254 18.4256 49.0637C16.1277 45.9998 14.8511 42.5105 14.5958 38.5956C14.5958 38.3403 14.5107 38.0849 14.5107 37.7445C14.5107 37.4892 14.5107 37.2339 14.5107 36.8935Z" fill="#3B43FF"/>
<path d="M55.9575 36.9786C55.7873 43.1062 53.4894 48.2977 48.8937 52.4679C48.2128 53.1488 47.3618 53.4892 46.4256 53.1488C45.0639 52.553 44.7235 51.0211 45.7447 49.8296C46.9362 48.4679 48.2979 47.1913 49.3192 45.6594C53.4043 39.3615 52.4681 30.7658 47.1064 25.4041C46.6809 24.9786 46.2554 24.553 45.8298 24.1275C45.0639 23.3615 44.9788 22.1701 45.6596 21.4041C46.4256 20.553 47.6171 20.3828 48.5532 21.0637C50.2554 22.4254 51.7022 24.0424 52.8086 25.9147C54.5958 28.8084 55.7022 31.9573 55.8724 35.3615C55.8724 35.8722 55.8724 36.3828 55.9575 36.9786Z" fill="#3B43FF"/>
<path d="M47.532 36.4679C47.532 40.7232 46.0852 43.702 43.3618 46.2552C42.4256 47.1913 41.0639 47.1913 40.2979 46.2552C39.532 45.4041 39.532 44.1275 40.5532 43.2764C42.2554 41.6594 43.3618 39.702 43.4469 37.319C43.532 35.0211 42.8511 33.0637 41.3192 31.3615C41.0639 31.0211 40.7235 30.7658 40.4681 30.5105C39.6171 29.6594 39.532 28.4679 40.2979 27.6169C41.0639 26.7658 42.3405 26.6807 43.2766 27.5318C44.7235 28.8084 45.8298 30.3403 46.5958 32.1275C47.2766 33.6594 47.6171 35.2764 47.532 36.4679Z" fill="#3B43FF"/>
<path d="M28.2979 26.936C29.4894 26.936 30.0852 27.3615 30.5107 28.2126C30.9362 29.0637 30.6809 29.9147 30.0001 30.5105C28.8937 31.6169 27.9575 32.7232 27.4469 34.2552C26.4256 37.4892 27.1064 40.2977 29.3192 42.7658C29.4894 43.0211 29.7447 43.1913 30.0001 43.4467C30.8511 44.3828 30.9362 45.5743 30.0852 46.4254C29.3192 47.1913 28.0426 47.2764 27.1915 46.5105C25.0639 44.6381 23.6171 42.4254 23.1915 39.6169C22.3405 35.0211 23.6171 31.0211 27.0213 27.8722C27.4469 27.2764 28.0426 27.1062 28.2979 26.936Z" fill="#3B43FF"/>
<path d="M35.1064 40.9786C32.8086 40.9786 31.0213 39.1913 31.0213 36.8935C31.0213 34.5956 32.8937 32.8084 35.1915 32.8084C37.4894 32.8084 39.2766 34.5956 39.2766 36.8935C39.2766 39.2764 37.4894 40.9786 35.1064 40.9786Z" fill="#3B43FF"/>
<path d="M78.3848 57.6597H87.6375V42.892C88.4954 43.0146 89.5984 43.0759 90.8239 43.0759C96.3388 43.0759 101.057 41.7278 104.243 38.7252C106.695 36.3967 108.043 32.9652 108.043 28.921C108.043 24.8767 106.266 21.4452 103.631 19.3618C100.873 17.1559 96.7677 16.0529 91.0077 16.0529C85.309 16.0529 81.2648 16.4206 78.3848 16.9108V57.6597ZM87.6375 23.4674C88.3116 23.2835 89.5984 23.0997 91.498 23.0997C96.155 23.0997 98.7899 25.3669 98.7899 29.1661C98.7899 33.3942 95.726 35.9065 90.7626 35.9065C89.4146 35.9065 88.4341 35.8452 87.6375 35.6614V23.4674Z" fill="#191A35"/>
<path d="M140.108 27.6954H130.733V45.5269C130.733 46.2623 130.671 46.9976 130.426 47.5491C129.814 49.0197 128.343 50.7967 125.769 50.7967C122.522 50.7967 121.112 48.1618 121.112 43.8112V27.6954H111.737V45.2818C111.737 54.5346 116.21 58.3337 122.277 58.3337C127.669 58.3337 130.488 55.2699 131.652 53.4316H131.836L132.265 57.6597H140.353C140.231 55.1474 140.108 51.961 140.108 48.0393V27.6954Z" fill="#191A35"/>
<path d="M144.643 56.1891C146.91 57.4146 150.403 58.2725 154.325 58.2725C162.903 58.2725 167.315 54.1669 167.315 48.5908C167.254 44.1789 164.864 41.2989 159.166 39.338C155.489 38.0512 154.325 37.3159 154.325 35.9065C154.325 34.3746 155.611 33.4554 157.879 33.4554C160.452 33.4554 163.026 34.4359 164.374 35.1712L166.028 28.7371C164.19 27.818 161.065 27.0214 157.572 27.0214C150.158 27.0214 145.378 31.2495 145.378 36.8257C145.317 40.3797 147.707 43.7499 153.896 45.8333C157.388 46.9976 158.308 47.7329 158.308 49.2648C158.308 50.7967 157.143 51.7772 154.325 51.7772C151.567 51.7772 148.013 50.5516 146.297 49.5099L144.643 56.1891Z" fill="#191A35"/>
<path d="M171.702 57.6597H181.016V39.8895C181.016 39.2154 181.078 38.4189 181.323 37.8061C181.997 36.1516 183.529 34.5584 185.98 34.5584C189.473 34.5584 190.821 37.2546 190.821 41.1763V57.6597H200.135V40.1346C200.135 31.1269 195.6 27.0214 189.656 27.0214C187.941 27.0214 186.164 27.4503 184.816 28.1857C183.345 28.9823 182.119 29.9627 181.139 31.2495H181.016V14.1533H171.702V57.6597Z" fill="#191A35"/>
<path d="M231.259 32.5976H216.063V24.0189H232.178V16.3593H206.687V57.6597H233.036V50.0001H216.063V40.1959H231.259V32.5976Z" fill="#191A35"/>
<path d="M237.888 57.6597H247.202V40.3797C247.202 39.5218 247.325 38.6027 247.57 38.0512C248.183 36.3354 249.715 34.5584 252.288 34.5584C255.658 34.5584 257.007 37.1933 257.007 41.0537V57.6597H266.321V39.8895C266.321 31.0657 261.725 27.0214 255.597 27.0214C250.634 27.0214 247.57 29.9014 246.344 31.801H246.161L245.732 27.6954H237.643C237.766 30.3303 237.888 33.5167 237.888 37.2546V57.6597Z" fill="#191A35"/>
<path d="M293.095 27.6954L292.788 31.2495H292.666C291.134 28.7984 288.56 27.0214 284.455 27.0214C277.101 27.0214 270.851 33.1491 270.851 42.7695C270.851 51.4095 276.121 57.4146 283.535 57.4146C286.967 57.4146 289.847 56.0052 291.624 53.4929H291.747V55.4537C291.747 60.9686 288.376 63.3584 283.964 63.3584C280.472 63.3584 277.163 62.1942 275.263 61.0912L273.425 68.138C276.121 69.6699 280.288 70.4665 284.21 70.4665C288.621 70.4665 293.095 69.6086 296.404 66.7899C299.774 63.7874 300.938 59.0691 300.938 53.3091V36.5806C300.938 32.1074 301.061 29.595 301.183 27.6954H293.095ZM291.624 44.3014C291.624 45.098 291.563 46.0784 291.318 46.7525C290.705 48.9584 288.805 50.5516 286.415 50.5516C282.494 50.5516 280.288 47.0589 280.288 42.5857C280.288 37.132 283.045 34.0682 286.415 34.0682C288.989 34.0682 290.766 35.7227 291.44 38.1737C291.563 38.664 291.624 39.2767 291.624 39.8895V44.3014Z" fill="#191A35"/>
<path d="M332.616 57.6597C332.309 56.0052 332.187 53.2478 332.187 50.3678V39.9508C332.187 32.904 329 27.0214 319.012 27.0214C313.559 27.0214 309.453 28.492 307.37 29.6563L309.085 35.6614C311.046 34.4359 314.294 33.3942 317.358 33.3942C321.953 33.3942 322.811 35.6614 322.811 37.2546V37.6835C312.211 37.6223 305.225 41.3601 305.225 49.1423C305.225 53.9218 308.84 58.3337 314.907 58.3337C318.461 58.3337 321.525 57.0469 323.485 54.6572H323.669L324.221 57.6597H332.616ZM323.118 46.7525C323.118 47.304 323.056 47.8554 322.934 48.3457C322.321 50.2452 320.422 51.7772 318.093 51.7772C316.01 51.7772 314.416 50.6129 314.416 48.2231C314.416 44.6078 318.216 43.4435 323.118 43.5048V46.7525Z" fill="#191A35"/>
<path d="M358.862 27.6954L358.555 31.2495H358.433C356.901 28.7984 354.327 27.0214 350.222 27.0214C342.868 27.0214 336.618 33.1491 336.618 42.7695C336.618 51.4095 341.888 57.4146 349.302 57.4146C352.734 57.4146 355.614 56.0052 357.391 53.4929H357.514V55.4537C357.514 60.9686 354.143 63.3584 349.731 63.3584C346.239 63.3584 342.93 62.1942 341.03 61.0912L339.192 68.138C341.888 69.6699 346.055 70.4665 349.977 70.4665C354.388 70.4665 358.862 69.6086 362.171 66.7899C365.541 63.7874 366.705 59.0691 366.705 53.3091V36.5806C366.705 32.1074 366.828 29.595 366.95 27.6954H358.862ZM357.391 44.3014C357.391 45.098 357.33 46.0784 357.085 46.7525C356.472 48.9584 354.572 50.5516 352.182 50.5516C348.261 50.5516 346.055 47.0589 346.055 42.5857C346.055 37.132 348.812 34.0682 352.182 34.0682C354.756 34.0682 356.533 35.7227 357.207 38.1737C357.33 38.664 357.391 39.2767 357.391 39.8895V44.3014Z" fill="#191A35"/>
<path d="M399.424 45.6495C399.547 44.9754 399.731 43.5661 399.731 41.9729C399.731 34.5584 396.054 27.0214 386.372 27.0214C375.955 27.0214 371.237 35.4163 371.237 43.0146C371.237 52.3899 377.058 58.2725 387.23 58.2725C391.275 58.2725 395.012 57.6597 398.076 56.4342L396.851 50.1227C394.338 50.9193 391.765 51.3482 388.578 51.3482C384.228 51.3482 380.429 49.5099 380.122 45.6495H399.424ZM380.061 39.2767C380.306 36.7644 381.899 33.2103 385.821 33.2103C390.11 33.2103 391.091 37.0095 391.091 39.2767H380.061Z" fill="#191A35"/>
</svg>
