<svg width="128" height="128" viewBox="0 0 128 128" fill="none" xmlns="http://www.w3.org/2000/svg">
  <!-- Background circle with PushEngage blue -->
  <rect width="128" height="128" rx="24" fill="#3B43FF"/>
  <!-- PushEngage signal/broadcast icon (centered, white) -->
  <g transform="translate(18, 20) scale(1.3)">
    <path d="M64.2128 36.2977C64.1277 44.2977 61.7447 50.6807 56.9788 56.1275C56.1277 57.1488 55.1064 58.0849 54.0852 58.936C53.149 59.7871 51.7873 59.7871 51.0213 58.936C50.2554 57.9998 50.4256 56.7232 51.4469 55.8722C53.5745 54.0849 55.2766 52.0424 56.6384 49.6594C58.6809 46.1701 59.8724 42.4254 60.0426 38.3403C60.383 31.2764 58.1703 25.2339 53.4894 20.0424C52.8086 19.3615 52.0426 18.6807 51.3618 17.9998C50.4256 17.1488 50.2554 15.7871 51.0213 14.936C51.7873 13.9998 53.0639 13.9998 54.0852 14.936C59.532 19.6169 62.766 25.5743 63.9575 32.6381C64.1277 34.0849 64.1277 35.5318 64.2128 36.2977Z" fill="white"/>
    <path d="M6.25537 36.9786C6.42558 28.1275 9.74473 20.7232 16.4681 14.8509C17.4043 13.9998 18.766 14.085 19.4469 14.936C20.2128 15.7871 20.0426 17.1488 19.1064 17.9147C14.5107 21.9147 11.6171 26.8509 10.6809 32.8935C9.40431 40.8084 11.532 47.7871 16.8937 53.7445C17.5745 54.5105 18.4256 55.2764 19.1915 55.9573C20.1277 56.8084 20.2128 58.0849 19.4469 58.936C18.6809 59.7871 17.4043 59.7871 16.4681 59.0211C10.5107 53.9147 7.10643 47.3615 6.42558 39.5318C6.42558 39.1062 6.34048 38.6807 6.34048 38.2552C6.25537 37.8296 6.25537 37.4041 6.25537 36.9786Z" fill="white"/>
    <path d="M14.5107 36.8935C14.6809 30.5956 16.9788 25.319 21.8298 21.1488C22.8511 20.2977 23.9575 20.3828 24.8086 21.319C25.5745 22.1701 25.4894 23.2764 24.4681 24.2126C22.1703 26.3403 20.2979 28.8084 19.3618 31.8722C17.5745 38.0849 18.8511 43.6169 23.2766 48.3828C23.7022 48.8935 24.2128 49.319 24.6384 49.8296C25.4043 50.5956 25.4894 51.7871 24.8086 52.553C24.1277 53.4041 22.766 53.5743 22.0001 52.8084C20.7235 51.6169 19.532 50.4254 18.4256 49.0637C16.1277 45.9998 14.8511 42.5105 14.5958 38.5956C14.5958 38.3403 14.5107 38.0849 14.5107 37.7445C14.5107 37.4892 14.5107 37.2339 14.5107 36.8935Z" fill="white"/>
    <path d="M55.9575 36.9786C55.7873 43.1062 53.4894 48.2977 48.8937 52.4679C48.2128 53.1488 47.3618 53.4892 46.4256 53.1488C45.0639 52.553 44.7235 51.0211 45.7447 49.8296C46.9362 48.4679 48.2979 47.1913 49.3192 45.6594C53.4043 39.3615 52.4681 30.7658 47.1064 25.4041C46.6809 24.9786 46.2554 24.553 45.8298 24.1275C45.0639 23.3615 44.9788 22.1701 45.6596 21.4041C46.4256 20.553 47.6171 20.3828 48.5532 21.0637C50.2554 22.4254 51.7022 24.0424 52.8086 25.9147C54.5958 28.8084 55.7022 31.9573 55.8724 35.3615C55.8724 35.8722 55.8724 36.3828 55.9575 36.9786Z" fill="white"/>
    <path d="M47.532 36.4679C47.532 40.7232 46.0852 43.702 43.3618 46.2552C42.4256 47.1913 41.0639 47.1913 40.2979 46.2552C39.532 45.4041 39.532 44.1275 40.5532 43.2764C42.2554 41.6594 43.3618 39.702 43.4469 37.319C43.532 35.0211 42.8511 33.0637 41.3192 31.3615C41.0639 31.0211 40.7235 30.7658 40.4681 30.5105C39.6171 29.6594 39.532 28.4679 40.2979 27.6169C41.0639 26.7658 42.3405 26.6807 43.2766 27.5318C44.7235 28.8084 45.8298 30.3403 46.5958 32.1275C47.2766 33.6594 47.6171 35.2764 47.532 36.4679Z" fill="white"/>
    <path d="M28.2979 26.936C29.4894 26.936 30.0852 27.3615 30.5107 28.2126C30.9362 29.0637 30.6809 29.9147 30.0001 30.5105C28.8937 31.6169 27.9575 32.7232 27.4469 34.2552C26.4256 37.4892 27.1064 40.2977 29.3192 42.7658C29.4894 43.0211 29.7447 43.1913 30.0001 43.4467C30.8511 44.3828 30.9362 45.5743 30.0852 46.4254C29.3192 47.1913 28.0426 47.2764 27.1915 46.5105C25.0639 44.6381 23.6171 42.4254 23.1915 39.6169C22.3405 35.0211 23.6171 31.0211 27.0213 27.8722C27.4469 27.2764 28.0426 27.1062 28.2979 26.936Z" fill="white"/>
    <path d="M35.1064 40.9786C32.8086 40.9786 31.0213 39.1913 31.0213 36.8935C31.0213 34.5956 32.8937 32.8084 35.1915 32.8084C37.4894 32.8084 39.2766 34.5956 39.2766 36.8935C39.2766 39.2764 37.4894 40.9786 35.1064 40.9786Z" fill="white"/>
  </g>
</svg>
